<svg width="33" height="24" viewBox="0 0 33 24" fill="none" xmlns="http://www.w3.org/2000/svg">
<path fill-rule="evenodd" clip-rule="evenodd" d="M32.7042 19.2634C32.7042 19.2634 30.3242 23.3234 24.1358 23.5202C24.1358 23.5202 23.1284 22.316 22.2884 21.2518C25.9558 20.216 27.3558 17.9202 27.3558 17.9202C26.2084 18.676 25.1158 19.2076 24.1358 19.5718C18.1038 22.106 11.3903 21.2387 6.66422 18.5918C6.60734 18.5535 5.92812 18.1805 5.51578 17.8918C5.51578 17.8918 6.86 20.1318 10.4158 21.196C9.57578 22.2602 8.54 23.5202 8.54 23.5202C2.35266 23.3234 0 19.2634 0 19.2634C0 10.2476 4.03266 2.94023 4.03266 2.94023C8.06422 -0.0839853 11.9 0.000234422 11.9 0.000234422L12.18 0.336015C7.14 1.7918 4.81578 4.00336 4.81578 4.00336C4.81578 4.00336 5.43266 3.66758 6.46844 3.1918C12.9205 0.35789 20.7331 0.357889 27.3842 4.00336C27.3842 4.00336 25.1727 1.90336 20.4127 0.447578L20.8042 0.000234422C20.8042 0.000234422 24.64 -0.0839853 28.6727 2.94023C28.6727 2.94023 32.7042 10.2476 32.7042 19.2634ZM21.3358 10.4434C19.74 10.4434 18.48 11.8434 18.48 13.5518C18.48 15.2602 19.7684 16.6602 21.3358 16.6602C22.9327 16.6602 24.1927 15.2602 24.1927 13.5518C24.1927 11.8434 22.9327 10.4434 21.3358 10.4434ZM11.1158 10.4434C9.52 10.4434 8.26 11.8434 8.26 13.5518C8.26 15.2602 9.54844 16.6602 11.1158 16.6602C12.7127 16.6602 13.9727 15.2602 13.9727 13.5518C14 11.8434 12.7127 10.4434 11.1158 10.4434Z" fill="#292A2C"/>
</svg>
